<svg width="109" height="113" viewBox="0 0 109 113" fill="none" xmlns="http://www.w3.org/2000/svg">
<g clip-path="url(#clip0_10_2)">
<path d="M63.7076 110.284C60.8481 113.885 55.0502 111.912 54.9813 107.314L53.9738 40.0625H99.1935C107.384 40.0625 111.952 49.5226 106.859 55.9372L63.7076 110.284Z" fill="url(#paint0_linear_10_2)"/>
<path d="M63.7076 110.284C60.8481 113.885 55.0502 111.912 54.9813 107.314L53.9738 40.0625H99.1935C107.384 40.0625 111.952 49.5226 106.859 55.9372L63.7076 110.284Z" fill="url(#paint1_linear_10_2)" fill-opacity="0.2"/>
<path d="M45.317 2.07103C48.1765 -1.53037 53.9745 0.442938 54.0434 5.041L54.4849 72.2922H9.83113C1.64038 72.2922 -2.92775 62.8321 2.1655 56.4175L45.317 2.07103Z" fill="#FFD240"/>
</g>
<defs>
<linearGradient id="paint0_linear_10_2" x1="53.9738" y1="54.9738" x2="94.1635" y2="71.8293" gradientUnits="userSpaceOnUse">
<stop stop-color="#F3EC25"/>
<stop offset="1" stop-color="#FFAC58"/>
</linearGradient>
<linearGradient id="paint1_linear_10_2" x1="36.1558" y1="30.5779" x2="54.4844" y2="65.0804" gradientUnits="userSpaceOnUse">
<stop/>
<stop offset="1" stop-opacity="0"/>
</linearGradient>
<clipPath id="clip0_10_2">
<rect width="109" height="113" fill="white"/>
</clipPath>
</defs>
</svg>
